<svg width="517" height="321" viewBox="0 0 517 321" fill="none" xmlns="http://www.w3.org/2000/svg">
<path d="M76.212 243.817C76.212 285.899 42.0813 320.011 0 320.011V160.005H76.212V243.817Z" fill="#AA00FF"/>
<path d="M403.547 243.817V320.011C447.66 320.011 487.661 302.067 516.635 273.093L462.811 219.269C447.644 234.437 426.691 243.817 403.547 243.817Z" fill="#AA00FF"/>
<mask id="mask0_66_23" style="mask-type:luminance" maskUnits="userSpaceOnUse" x="243" y="0" width="274" height="161">
<path d="M403.547 2.42072e-05C315.319 2.42072e-05 243.54 71.7774 243.54 160.005H319.733C319.733 113.717 357.257 76.1934 403.547 76.1934C426.691 76.1934 447.644 85.5734 462.811 100.741L516.635 46.9173C487.661 17.944 447.66 2.42072e-05 403.547 2.42072e-05Z" fill="white"/>
</mask>
<g mask="url(#mask0_66_23)">
<path d="M403.547 2.42072e-05C315.319 2.42072e-05 243.54 71.7774 243.54 160.005H319.733C319.733 113.717 357.257 76.1934 403.547 76.1934C426.691 76.1934 447.644 85.5734 462.811 100.741L516.635 46.9173C487.661 17.944 447.66 2.42072e-05 403.547 2.42072e-05Z" fill="#AA00FF"/>
</g>
<path d="M319.733 160.005C319.733 71.7774 247.956 4.84143e-05 159.728 4.84143e-05V76.1934C206.016 76.1934 243.54 113.717 243.54 160.005C243.54 248.233 315.319 320.011 403.547 320.011V243.817C357.257 243.817 319.733 206.293 319.733 160.005Z" fill="#AA00FF"/>
<mask id="mask1_66_23" style="mask-type:luminance" maskUnits="userSpaceOnUse" x="0" y="0" width="160" height="161">
<path d="M159.728 76.1934V2.42072e-05C71.5 2.42072e-05 0 71.7774 0 160.005H76.212C76.212 113.717 113.439 76.1934 159.728 76.1934Z" fill="white"/>
</mask>
<g mask="url(#mask1_66_23)">
<path d="M159.728 76.1934V2.42072e-05C71.5 2.42072e-05 0 71.7774 0 160.005H76.212C76.212 113.717 113.439 76.1934 159.728 76.1934Z" fill="#AA00FF"/>
</g>
</svg>
